<?xml version="1.0" encoding="UTF-8" standalone="no"?>
<!-- Created with Inkscape (http://www.inkscape.org/) -->

<svg
   xmlns:dc="http://purl.org/dc/elements/1.1/"
   xmlns:cc="http://creativecommons.org/ns#"
   xmlns:rdf="http://www.w3.org/1999/02/22-rdf-syntax-ns#"
   xmlns:svg="http://www.w3.org/2000/svg"
   xmlns="http://www.w3.org/2000/svg"
   xmlns:sodipodi="http://sodipodi.sourceforge.net/DTD/sodipodi-0.dtd"
   xmlns:inkscape="http://www.inkscape.org/namespaces/inkscape"
   width="1920px"
   height="1080px"
   viewBox="0 0 1920 1080"
   version="1.1"
   id="SVGRoot"
   sodipodi:docname="shipboximage.svg"
   inkscape:version="0.92.4 (5da689c313, 2019-01-14)">
  <defs
     id="defs5494" />
  <sodipodi:namedview
     id="base"
     pagecolor="#ffffff"
     bordercolor="#666666"
     borderopacity="1.0"
     inkscape:pageopacity="0.0"
     inkscape:pageshadow="2"
     inkscape:zoom="0.49497475"
     inkscape:cx="839.49536"
     inkscape:cy="819.28589"
     inkscape:document-units="px"
     inkscape:current-layer="layer1"
     showgrid="false"
     inkscape:window-width="1920"
     inkscape:window-height="986"
     inkscape:window-x="-11"
     inkscape:window-y="-11"
     inkscape:window-maximized="1" />
  <metadata
     id="metadata5497">
    <rdf:RDF>
      <cc:Work
         rdf:about="">
        <dc:format>image/svg+xml</dc:format>
        <dc:type
           rdf:resource="http://purl.org/dc/dcmitype/StillImage" />
        <dc:title></dc:title>
      </cc:Work>
    </rdf:RDF>
  </metadata>
  <g
     inkscape:label="Layer 1"
     inkscape:groupmode="layer"
     id="layer1">
    <g
       id="g6473"
       transform="matrix(3.8406482,0,0,2.8752965,3.0318111,-353.85573)">
      <g
         id="BACKGROUND">
	<rect
   id="rect6052"
   height="500"
   width="500"
   class="st0"
   x="0"
   y="0"
   style="fill:#4fc2f8" />

</g>
      <g
         id="OBJECTS">
	<path
   id="path6055"
   d="M 500,49.66 V 195.9 C 407.29,164.44 300.14,171.35 202.72,180.54 134.97,186.93 67.37,194.91 0,204.47 v -72.08 c 116.12,25.2 237.99,32.17 349.72,-6.17 C 403.06,107.91 452.23,79.93 500,49.66 Z"
   class="st1"
   inkscape:connector-curvature="0"
   style="opacity:0.15;fill:#ffffff" />

	<path
   id="path6057"
   d="m 236.69,82.44 c -2.57,8.93 -13.01,12.6 -22.08,14.62 C 144.49,112.71 71.85,109.43 0,104.37 V 54.42 c 76.95,20.89 157,30.37 236.69,28.02 z"
   class="st1"
   inkscape:connector-curvature="0"
   style="opacity:0.15;fill:#ffffff" />

	<path
   id="path6059"
   d="M 127.75,306.96 C 84.87,308.14 42.01,314.41 0,323.48 V 276.6 c 9.89,-8 22.22,-13.05 34.89,-12.96 15.24,0.11 30.6,8.35 37.56,21.9 1.32,-3.12 6.93,-3.83 10.3,-4.1 3.42,-0.27 6.98,-0.52 10.15,0.78 5.99,2.44 8.56,9.35 10.49,15.52 3.01,-4.43 11.05,-4.99 16.11,-3.24 5.06,1.75 8.62,7.12 8.25,12.46 z"
   class="st2"
   inkscape:connector-curvature="0"
   style="opacity:0.5;fill:#ffffff" />

	<path
   id="path6061"
   d="m 424.48,316.9 c 0.02,-3.65 -0.34,-8 -3.5,-9.83 -2.96,-1.72 -6.43,-1.35 -9.27,0.54 -1.47,-1.4 -0.31,-3.85 -0.52,-5.87 -0.27,-2.57 -2.99,-4.32 -5.57,-4.43 -2.58,-0.11 -6.27,0.5 -8.61,1.59 -0.08,-7.57 -0.27,-15.5 -4.01,-22.08 -4.48,-7.85 -13.72,-12.39 -22.75,-12.25 -9.04,0.14 -17.7,4.55 -24.03,11 -6.33,6.45 -11.5,15.54 -14.05,24.22 -0.92,-4.66 -6.9,-6.87 -11.39,-5.31 -4.49,1.56 -7.58,5.67 -9.82,9.85 37.62,3.59 76.1,7.23 113.52,12.57 z"
   class="st2"
   inkscape:connector-curvature="0"
   style="opacity:0.5;fill:#ffffff" />

	<g
   id="g6103">
		
			<rect
   id="rect6063"
   height="19.35"
   width="7.5999999"
   class="st3"
   transform="matrix(0.9999,0.0138,-0.0138,0.9999,4.0541,-3.6378)"
   y="282.23001"
   x="261.78"
   style="fill:#958496" />

		
			<rect
   id="rect6065"
   height="16.700001"
   width="24.299999"
   class="st3"
   transform="matrix(0.9999,0.0138,-0.0138,0.9999,3.9918,-3.1187)"
   y="279.39001"
   x="215.87"
   style="fill:#958496" />

		
			<rect
   id="rect6067"
   height="9.0299997"
   width="20.25"
   class="st4"
   transform="matrix(0.9999,0.0138,-0.0138,0.9999,3.9227,-3.3758)"
   y="278.10001"
   x="236.5"
   style="fill:#b5d7f0" />

		
			<rect
   id="rect6069"
   height="16.790001"
   width="26.57"
   class="st5"
   transform="matrix(0.9999,0.0138,-0.0138,0.9999,4.1008,-3.3784)"
   y="287.13"
   x="233.61"
   style="fill:#8ad094" />

		
			<rect
   id="rect6071"
   height="16.790001"
   width="6.4499998"
   class="st6"
   transform="matrix(0.9999,0.0138,-0.0138,0.9999,4.1065,-3.6069)"
   y="287.35999"
   x="260.17999"
   style="fill:#7eb691" />

		
			<rect
   id="rect6073"
   height="7.2199998"
   width="26.309999"
   class="st7"
   transform="matrix(0.9999,0.0138,-0.0138,0.9999,3.9604,-3.2403)"
   y="281.82999"
   x="223.69"
   style="fill:#f8dba3" />

		
			<rect
   id="rect6075"
   height="14.72"
   width="26.309999"
   class="st8"
   transform="matrix(0.9999,0.0138,-0.0138,0.9999,4.1117,-3.2371)"
   y="289.04999"
   x="223.53999"
   style="fill:#f5b35d" />

		
			<rect
   id="rect6077"
   height="7.2199998"
   width="8.5100002"
   class="st9"
   transform="matrix(0.9999,0.0138,-0.0138,0.9999,3.9615,-3.3619)"
   y="281.95001"
   x="241.49001"
   style="fill:#f8c866" />

		
			<rect
   id="rect6079"
   height="14.72"
   width="8.5100002"
   class="st10"
   transform="matrix(0.9999,0.0138,-0.0138,0.9999,4.1128,-3.3587)"
   y="289.17999"
   x="241.34"
   style="fill:#f5a233" />

		
			<rect
   id="rect6081"
   height="55.720001"
   width="25.93"
   class="st11"
   transform="matrix(0.0138,-0.9999,0.9999,0.0138,-1.7979,592.3288)"
   y="269.22"
   x="286.42001"
   style="fill:#266381" />

		<polygon
   id="polygon6083"
   points="259.37,293.64 203.7,292.87 217.92,313.97 332.25,315.54 334.94,300.12 312.75,299.82 311.17,304.81 275.57,304.31 "
   class="st12"
   style="fill:#101c28" />

		<polygon
   id="polygon6085"
   points="215.55,310.45 217.92,313.97 332.25,315.54 332.88,312.07 "
   class="st13"
   style="fill:#851f1a" />

		
			<rect
   id="rect6087"
   height="9.0299997"
   width="5.1599998"
   class="st14"
   transform="matrix(0.9999,0.0138,-0.0138,0.9999,3.9215,-3.5468)"
   y="278.26999"
   x="256.75"
   style="fill:#90c8f0" />

		
			<rect
   id="rect6089"
   height="1.42"
   width="55.720001"
   class="st12"
   transform="matrix(0.9999,0.0138,-0.0138,0.9999,3.9382,-4.1057)"
   y="282.70001"
   x="271.70999"
   style="fill:#101c28" />

		
			<rect
   id="rect6091"
   height="4.3899999"
   width="2.5799999"
   class="st4"
   transform="matrix(0.9999,0.0138,-0.0138,0.9999,4.0536,-3.8057)"
   y="289.62"
   x="276.48999"
   style="fill:#b5d7f0" />

		
			<rect
   id="rect6093"
   height="4.3899999"
   width="2.5799999"
   class="st4"
   transform="matrix(0.9999,0.0138,-0.0138,0.9999,4.0553,-3.8945)"
   y="289.70999"
   x="282.94"
   style="fill:#b5d7f0" />

		
			<rect
   id="rect6095"
   height="4.3899999"
   width="2.5799999"
   class="st4"
   transform="matrix(0.9999,0.0138,-0.0138,0.9999,4.0608,-4.165)"
   y="289.98001"
   x="302.54001"
   style="fill:#b5d7f0" />

		
			<rect
   id="rect6097"
   height="4.3899999"
   width="2.5799999"
   class="st4"
   transform="matrix(0.9999,0.0138,-0.0138,0.9999,4.1649,-4.0242)"
   y="297.57999"
   x="292.38"
   style="fill:#b5d7f0" />

		
			<rect
   id="rect6099"
   height="4.3899999"
   width="2.5799999"
   class="st4"
   transform="matrix(0.9999,0.0138,-0.0138,0.9999,4.0627,-4.2471)"
   y="290.06"
   x="308.48001"
   style="fill:#b5d7f0" />

		
			<rect
   id="rect6101"
   height="4.3899999"
   width="2.5799999"
   class="st4"
   transform="matrix(0.9999,0.0138,-0.0138,0.9999,4.0642,-4.3288)"
   y="290.14001"
   x="314.41"
   style="fill:#b5d7f0" />

	</g>

	<g
   id="g6121">
		<path
   id="path6105"
   d="M 500,335.05 V 500 H 0 V 335.05 c 73.87,-14 159.16,-21.98 250,-21.98 56.12,0 110.12,3.05 160.62,8.68 9.28,1.04 18.45,2.16 27.48,3.37 7.49,0.99 14.89,2.05 22.19,3.16 10.58,1.61 20.96,3.34 31.13,5.19 2.88,0.51 5.74,1.04 8.58,1.58 z"
   class="st15"
   inkscape:connector-curvature="0"
   style="fill:#89d4ee" />

		<path
   id="path6107"
   d="m 410.62,321.75 c -4.23,5.61 -6.84,12.92 -8.16,19.91 -2.31,12.19 -2.36,25.21 -8.42,36.03 -12.35,22.06 -43.28,25.38 -61.09,43.32 -11.14,11.22 -24.86,28.43 -24.28,44.94 0.28,8.08 -1.13,18.54 -9.01,20.37 -5.76,1.34 -11.46,-3.59 -13.15,-9.26 -3.6,-12.1 2.07,-28.35 0.41,-41.56 -1.71,-13.54 -6.82,-21.31 -12.25,-33.53 -3.5,-7.88 -0.4,-17.06 3.42,-24.79 3.83,-7.74 8.52,-15.64 8.14,-24.27 -0.38,-8.62 -8.81,-17.45 -16.89,-14.4 -10.95,4.11 -7.09,20.88 -12.71,31.14 -8.34,15.2 -33.66,10.63 -44.7,24 -5.59,6.77 -5.96,16.4 -9.88,24.26 -7.88,15.77 -28.01,20.97 -45.64,20.56 -11.81,-0.28 -23.87,-2.23 -35.28,0.84 -11.41,3.07 -22.14,13.34 -20.61,25.06 0.55,4.19 2.6,8.08 3.12,12.28 0.52,4.19 -1.24,9.28 -5.36,10.26 -6.56,1.56 -10.24,-7.79 -16.48,-10.36 -8.48,-3.51 -16.63,7.98 -14.53,16.91 0.55,2.34 1.47,4.5 2.65,6.54 H 44.89 C 38.75,491.94 31.02,485.41 21.45,482.38 16.1,480.68 9.75,479.73 6.8,474.95 3.65,469.86 6.14,463.36 7.32,457.49 9.32,447.46 6.13,437.33 0,429.28 v -94.23 c 73.87,-14 159.16,-21.98 250,-21.98 37.59,0 74.23,1.37 109.5,3.97 17.39,1.27 34.45,2.85 51.12,4.71 z"
   class="st16"
   inkscape:connector-curvature="0"
   style="fill:#2aa064" />

		<path
   id="path6109"
   d="M 500,335.05 V 500 H 368.72 c 4.16,-11.9 19.21,-16.58 32.08,-16.98 4.87,-0.15 9.9,0.01 14.4,-1.87 4.5,-1.87 8.31,-6.49 7.42,-11.28 -0.83,-4.44 -5.15,-7.25 -7.59,-11.06 -4.79,-7.51 -1.38,-17.87 4.77,-24.32 6.15,-6.45 14.47,-10.28 21.79,-15.35 10.68,-7.4 19.37,-17.66 24.91,-29.41 5.72,-12.14 8.06,-25.61 13.41,-37.92 3.53,-8.1 7.4,-14.11 11.51,-18.34 2.88,0.51 5.74,1.04 8.58,1.58 z"
   class="st16"
   inkscape:connector-curvature="0"
   style="fill:#2aa064" />

		<path
   id="path6111"
   d="m 460.29,328.28 c -7.8,18.73 -6.81,42.3 -17.61,60.12 -12.28,20.25 -37.77,29.74 -49.67,50.22 -4.1,7.06 -6.39,15.17 -11.37,21.65 -3.21,4.18 -7.39,7.49 -11.24,11.09 -8.66,8.11 -15.71,17.91 -20.75,28.64 h -33.4 c 2.67,-5.94 6.52,-11.33 11.36,-15.69 5.11,-4.59 11.18,-8.03 16.24,-12.68 5.07,-4.65 9.22,-11.07 8.68,-17.92 -0.21,-2.72 -1.15,-5.35 -1.26,-8.07 -0.43,-10.34 10.28,-17.14 19.53,-21.76 20.41,-10.18 42.22,-22.38 50.7,-43.55 7.21,-17.99 4.43,-41.41 16.6,-55.21 7.49,0.99 14.89,2.05 22.19,3.16 z"
   class="st17"
   inkscape:connector-curvature="0"
   style="fill:#28b6f6" />

		<path
   id="path6113"
   d="m 255.48,498.94 c -0.16,0.35 -0.31,0.71 -0.45,1.06 h -97.18 c 4.56,-4.34 7.62,-9.98 11.55,-14.9 3.95,-4.94 9.36,-9.39 15.69,-9.59 4.93,-0.15 9.51,2.29 14.23,3.69 4.72,1.41 10.6,1.47 13.74,-2.32 1.44,-1.75 2.04,-4.02 2.7,-6.18 2.01,-6.68 4.91,-13.08 8.6,-19 1.89,-3.05 4.09,-6.06 7.22,-7.81 3.13,-1.75 7.4,-1.91 10.07,0.49 6.57,5.91 -2.63,18.07 2.42,25.33 3.22,4.63 10.54,4.54 14.12,8.9 4.59,5.6 0.23,13.71 -2.71,20.33 z"
   class="st17"
   inkscape:connector-curvature="0"
   style="fill:#28b6f6" />

		<path
   id="path6115"
   d="m 352.89,376.88 c -6.17,2.3 -13.24,3.57 -17.5,8.59 -3.11,3.65 -4.12,8.67 -7,12.5 -6.36,8.48 -21.77,7.02 -26.42,-2.51 -4.71,-9.64 1.35,-20.77 6.48,-30.19 5.14,-9.42 9.09,-22.27 1.55,-29.9 -2.45,-2.49 -5.75,-3.92 -9.05,-5.06 -17.26,-6 -36.69,-5.52 -53.64,1.33 -5.14,2.08 -10.35,4.78 -15.87,4.33 -3.38,-0.28 -6.55,-1.72 -9.87,-2.38 -12.87,-2.55 -24.97,6.86 -33.41,16.9 -8.44,10.03 -15.98,21.83 -28.02,27.02 -13.63,5.86 -29.2,1.69 -43.72,-1.34 -14.52,-3.03 -31.45,-4.21 -42.38,5.82 -7.57,6.94 -10.44,17.82 -17.75,25.03 -15.02,14.82 -38.7,9.17 -56.29,-2.26 v -69.71 c 73.87,-14 159.16,-21.98 250,-21.98 37.59,0 74.23,1.37 109.5,3.97 -1.76,1.66 -3.38,3.47 -4.8,5.47 -5.37,7.57 -7.08,18.56 -1.47,25.96 3.77,4.97 10.54,8.24 11.39,14.42 0.9,6.53 -5.56,11.68 -11.73,13.99 z"
   class="st18"
   inkscape:connector-curvature="0"
   style="fill:#248c57" />

		<path
   id="path6117"
   d="m 106.86,396.65 c -5.03,0.5 -9.89,1.72 -14.06,3.39 -0.04,0.02 -0.08,0.03 -0.12,0.05 -4.5,1.83 -8.45,5.5 -9.65,10.2 -1.21,4.7 0.92,10.32 5.37,12.27 2.07,0.91 4.4,0.99 6.66,0.91 7.58,-0.27 15.17,-2.19 22.68,-1.15 6.1,0.84 12.97,3.42 17.92,-0.25 4.43,-3.29 4.48,-10.41 1.21,-14.85 -6.78,-9.19 -18.79,-11.68 -30.01,-10.57 z"
   class="st18"
   inkscape:connector-curvature="0"
   style="fill:#248c57" />

		<path
   id="path6119"
   d="M 500,426.53 V 500 h -45.73 c -1.17,-3.13 -1.35,-6.63 0.16,-9.57 4.4,-8.64 28.66,-9.17 23.15,-22.55 -3.62,-8.79 -36.23,-13.78 -20.92,-29.57 6.46,-6.64 19.9,-7.06 28.43,-8.78 4.97,-1 9.94,-2 14.91,-3 z"
   class="st18"
   inkscape:connector-curvature="0"
   style="fill:#248c57" />

	</g>

	<path
   id="path6123"
   d="m 32.8,329.36 c 0,0 -15.09,-31.5 26.2,-28.1 31.03,2.56 123.67,15.17 351.62,198.74"
   class="st19"
   inkscape:connector-curvature="0"
   style="fill:none;stroke:#ffffff;stroke-miterlimit:10;stroke-dasharray:5" />

	<path
   id="path6125"
   d="m 1.38,470.33 c 0,0 318.16,-220.71 421.62,-214.87 54.94,3.1 45.08,74.03 45.08,74.03"
   class="st19"
   inkscape:connector-curvature="0"
   style="fill:none;stroke:#ffffff;stroke-miterlimit:10;stroke-dasharray:5" />

	<path
   id="path6127"
   d="m 229.55,497.9 c 0,0 92.21,-191.39 141.33,-200.71 22.12,-4.2 20.89,22.59 20.89,22.59"
   class="st19"
   inkscape:connector-curvature="0"
   style="fill:none;stroke:#ffffff;stroke-miterlimit:10;stroke-dasharray:5" />

	<path
   id="path6129"
   d="m 95,498.25 c 0,0 244,-92.01 405,-111.25"
   class="st19"
   inkscape:connector-curvature="0"
   style="fill:none;stroke:#ffffff;stroke-miterlimit:10;stroke-dasharray:5" />

	<path
   id="path6131"
   d="m 198.61,283.57 c -1.3,-7.02 -8.73,-11.93 -15.85,-11.5 -7.12,0.43 -13.47,5.41 -16.77,11.74 11.11,-0.01 21.54,0.74 32.62,-0.24 z"
   class="st2"
   inkscape:connector-curvature="0"
   style="opacity:0.5;fill:#ffffff" />

	<path
   id="path6133"
   d="m 452.52,320.4 c -0.13,-4.33 -4.12,-7.97 -8.43,-8.38 -4.31,-0.41 -8.58,1.99 -11.15,5.47 6.66,1.04 12.85,2.47 19.58,2.91 z"
   class="st2"
   inkscape:connector-curvature="0"
   style="opacity:0.5;fill:#ffffff" />

	<g
   id="g6139">
		<path
   id="path6135"
   d="m 425.1,476.48 c -0.02,5.28 -9.63,17.82 -9.63,17.82 0,0 -9.5,-12.63 -9.48,-17.91 0.02,-5.28 4.32,-9.54 9.6,-9.51 5.28,0.03 9.54,4.32 9.51,9.6 z"
   class="st11"
   inkscape:connector-curvature="0"
   style="fill:#266381" />

		<path
   id="path6137"
   d="m 421.06,475.69 c 0.01,-3.05 -2.45,-5.53 -5.5,-5.54 -3.05,-0.01 -5.53,2.45 -5.54,5.5 -0.01,3.05 2.45,5.53 5.5,5.54 3.05,0.01 5.53,-2.45 5.54,-5.5 z"
   class="st20"
   inkscape:connector-curvature="0"
   style="fill:#ffffff" />

	</g>

	<g
   id="g6145">
		<path
   id="path6141"
   d="m 347.77,372.44 c -0.02,5.28 -9.63,17.82 -9.63,17.82 0,0 -9.5,-12.63 -9.48,-17.91 0.02,-5.28 4.32,-9.54 9.6,-9.51 5.27,0.02 9.53,4.32 9.51,9.6 z"
   class="st11"
   inkscape:connector-curvature="0"
   style="fill:#266381" />

		<path
   id="path6143"
   d="m 343.73,371.65 c 0.01,-3.05 -2.45,-5.53 -5.5,-5.54 -3.05,-0.01 -5.53,2.45 -5.54,5.5 -0.01,3.05 2.45,5.53 5.5,5.54 3.04,0.01 5.53,-2.45 5.54,-5.5 z"
   class="st20"
   inkscape:connector-curvature="0"
   style="fill:#ffffff" />

	</g>

	<g
   id="g6151">
		<path
   id="path6147"
   d="m 71.23,346.69 c -0.02,5.28 -9.63,17.82 -9.63,17.82 0,0 -9.5,-12.63 -9.48,-17.91 0.02,-5.28 4.32,-9.54 9.6,-9.51 5.27,0.02 9.53,4.32 9.51,9.6 z"
   class="st11"
   inkscape:connector-curvature="0"
   style="fill:#266381" />

		<path
   id="path6149"
   d="m 67.19,345.9 c 0.01,-3.05 -2.45,-5.53 -5.5,-5.54 -3.05,-0.01 -5.53,2.45 -5.54,5.5 -0.01,3.05 2.45,5.53 5.5,5.54 3.04,0.01 5.52,-2.45 5.54,-5.5 z"
   class="st20"
   inkscape:connector-curvature="0"
   style="fill:#ffffff" />

	</g>

	<g
   id="g6157">
		<path
   id="path6153"
   d="m 61.67,470.52 c -0.02,5.28 -9.63,17.82 -9.63,17.82 0,0 -9.5,-12.63 -9.48,-17.91 0.02,-5.28 4.32,-9.54 9.6,-9.51 5.27,0.03 9.53,4.32 9.51,9.6 z"
   class="st11"
   inkscape:connector-curvature="0"
   style="fill:#266381" />

		<path
   id="path6155"
   d="m 57.63,469.73 c 0.01,-3.05 -2.45,-5.53 -5.5,-5.54 -3.05,-0.01 -5.53,2.45 -5.54,5.5 -0.01,3.05 2.45,5.53 5.5,5.54 3.04,0.01 5.53,-2.45 5.54,-5.5 z"
   class="st20"
   inkscape:connector-curvature="0"
   style="fill:#ffffff" />

	</g>

	<g
   id="g6163">
		<path
   id="path6159"
   d="m 188.22,396.39 c -0.02,5.28 -9.63,17.82 -9.63,17.82 0,0 -9.5,-12.63 -9.48,-17.91 0.02,-5.28 4.32,-9.54 9.6,-9.51 5.28,0.02 9.54,4.32 9.51,9.6 z"
   class="st11"
   inkscape:connector-curvature="0"
   style="fill:#266381" />

		<path
   id="path6161"
   d="m 184.18,395.6 c 0.01,-3.05 -2.45,-5.53 -5.5,-5.54 -3.05,-0.01 -5.53,2.45 -5.54,5.5 -0.01,3.05 2.45,5.53 5.5,5.54 3.05,0.01 5.53,-2.45 5.54,-5.5 z"
   class="st20"
   inkscape:connector-curvature="0"
   style="fill:#ffffff" />

	</g>

	<g
   id="g6169">
		<path
   id="path6165"
   d="m 487.88,355.47 c -0.02,5.28 -9.63,17.82 -9.63,17.82 0,0 -9.5,-12.63 -9.48,-17.91 0.02,-5.28 4.32,-9.54 9.6,-9.51 5.27,0.03 9.53,4.32 9.51,9.6 z"
   class="st11"
   inkscape:connector-curvature="0"
   style="fill:#266381" />

		<path
   id="path6167"
   d="m 483.84,354.68 c 0.01,-3.05 -2.45,-5.53 -5.5,-5.54 -3.05,-0.01 -5.53,2.45 -5.54,5.5 -0.01,3.05 2.45,5.53 5.5,5.54 3.04,0.01 5.53,-2.45 5.54,-5.5 z"
   class="st20"
   inkscape:connector-curvature="0"
   style="fill:#ffffff" />

	</g>

	<g
   id="g6195">
		<line
   id="line6171"
   y2="297.42001"
   x2="139.78999"
   y1="265.5"
   x1="137.60001"
   class="st21"
   style="fill:none;stroke:#631814;stroke-linecap:round;stroke-linejoin:round;stroke-miterlimit:10" />

		<path
   id="path6173"
   d="m 167.74,261.42 c -4.71,-3.58 -11.73,-3.89 -17.93,-2.54 -8.13,1.78 -11.61,5.39 -12.21,6.62 -1.33,-1.11 -10.25,-3.51 -16.42,-3.04 -5.37,0.4 -11.32,3.37 -14.03,6 -0.11,-0.47 -0.2,-0.94 -0.27,-1.42 -1.92,-12.4 7.2,-27.9 26.73,-31.89 15.78,-3.23 29.14,8.45 33.09,20.14 0.62,1.84 0.92,4.35 1.04,6.13 z"
   class="st22"
   inkscape:connector-curvature="0"
   style="fill:#f03d27" />

		<path
   id="path6175"
   d="m 167.74,261.42 c -4.71,-3.58 -11.73,-3.89 -17.93,-2.54 -8.13,1.78 -11.61,5.39 -12.21,6.62 -1.33,-1.11 -10.25,-3.51 -16.42,-3.04 -5.37,0.4 -11.32,3.37 -14.03,6 0,0 0.74,-7.77 6.22,-10.47 5.48,-2.71 10.61,-1.58 12.32,0.62 0,0 3.14,-5.01 9.08,-7.25 5.94,-2.24 13.64,0.22 15.17,3.72 0,0 3.71,-5.55 8.17,-5.57 4.46,-0.03 8.56,6.92 9.63,11.91 z"
   class="st13"
   inkscape:connector-curvature="0"
   style="fill:#851f1a" />

		<path
   id="path6177"
   d="m 149.94,255.07 c 0.34,-8.33 -6.33,-22.51 -16.86,-19.85 -10.53,2.67 -7.39,23.38 -7.39,23.38 0,0 3.14,-5.01 9.08,-7.25 5.95,-2.24 13.65,0.22 15.17,3.72 z"
   class="st20"
   inkscape:connector-curvature="0"
   style="fill:#ffffff" />

		<polyline
   id="polyline6179"
   points="125.69,258.6 139.79,297.42 149.94,255.07   "
   class="st23"
   style="fill:none;stroke:#e2342b;stroke-linecap:round;stroke-linejoin:round;stroke-miterlimit:10" />

		<polyline
   id="polyline6181"
   points="107.15,268.46 139.79,297.42 167.74,261.42   "
   class="st23"
   style="fill:none;stroke:#e2342b;stroke-linecap:round;stroke-linejoin:round;stroke-miterlimit:10" />

		<polygon
   id="polygon6183"
   points="117.58,331.79 111.74,299.1 160.96,293.07 164.85,326.89 "
   class="st24"
   style="fill:#fdb030" />

		<polygon
   id="polygon6185"
   points="164.85,326.89 160.96,293.07 178.2,296.71 179.85,322.51 "
   class="st25"
   style="fill:#d48b14" />

		<polygon
   id="polygon6187"
   points="173.7,295.76 166.68,294.28 167.18,299.42 174.01,300.11 "
   class="st26"
   style="opacity:0.5;fill:#ab7111" />

		<polygon
   id="polygon6189"
   points="175.81,323.69 170.34,325.29 169.79,319.81 175.23,318.97 "
   class="st26"
   style="opacity:0.5;fill:#ab7111" />

		<line
   id="line6191"
   y2="329.20001"
   x2="142.59"
   y1="295.67999"
   x1="139.67"
   class="st23"
   style="fill:none;stroke:#e2342b;stroke-linecap:round;stroke-linejoin:round;stroke-miterlimit:10" />

		<line
   id="line6193"
   y2="324.57999"
   x2="172.77"
   y1="295.67999"
   x1="170.41"
   class="st21"
   style="fill:none;stroke:#631814;stroke-linecap:round;stroke-linejoin:round;stroke-miterlimit:10" />

	</g>

	<g
   id="g6221">
		<line
   id="line6197"
   y2="281.67999"
   x2="412.79999"
   y1="256.03"
   x1="414.56"
   class="st21"
   style="fill:none;stroke:#631814;stroke-linecap:round;stroke-linejoin:round;stroke-miterlimit:10" />

		<path
   id="path6199"
   d="m 390.33,252.75 c 3.79,-2.88 9.43,-3.13 14.41,-2.04 6.53,1.43 9.33,4.33 9.82,5.32 1.07,-0.89 8.24,-2.82 13.2,-2.45 4.32,0.33 9.1,2.71 11.28,4.83 0.09,-0.38 0.16,-0.76 0.22,-1.14 1.54,-9.97 -5.79,-22.43 -21.49,-25.64 -12.68,-2.6 -23.42,6.8 -26.6,16.19 -0.51,1.48 -0.74,3.5 -0.84,4.93 z"
   class="st22"
   inkscape:connector-curvature="0"
   style="fill:#f03d27" />

		<path
   id="path6201"
   d="m 390.33,252.75 c 3.79,-2.88 9.43,-3.13 14.41,-2.04 6.53,1.43 9.33,4.33 9.82,5.32 1.07,-0.89 8.24,-2.82 13.2,-2.45 4.32,0.33 9.1,2.71 11.28,4.83 0,0 -0.6,-6.25 -5,-8.42 -4.4,-2.18 -8.53,-1.27 -9.91,0.49 0,0 -2.52,-4.03 -7.3,-5.83 -4.78,-1.8 -10.97,0.18 -12.19,2.99 0,0 -2.98,-4.46 -6.57,-4.47 -3.58,-0.02 -6.88,5.56 -7.74,9.58 z"
   class="st27"
   inkscape:connector-curvature="0"
   style="fill:#701b15" />

		<path
   id="path6203"
   d="m 404.64,247.64 c -0.28,-6.7 5.09,-18.1 13.55,-15.95 8.46,2.14 5.94,18.79 5.94,18.79 0,0 -2.52,-4.03 -7.3,-5.83 -4.78,-1.8 -10.97,0.18 -12.19,2.99 z"
   class="st20"
   inkscape:connector-curvature="0"
   style="fill:#ffffff" />

		<polyline
   id="polyline6205"
   points="424.13,250.48 412.8,281.68 404.64,247.64   "
   class="st23"
   style="fill:none;stroke:#e2342b;stroke-linecap:round;stroke-linejoin:round;stroke-miterlimit:10" />

		<polyline
   id="polyline6207"
   points="439.03,258.41 412.8,281.68 390.33,252.75   "
   class="st23"
   style="fill:none;stroke:#e2342b;stroke-linecap:round;stroke-linejoin:round;stroke-miterlimit:10" />

		<polygon
   id="polygon6209"
   points="426.58,308.89 429.19,282.28 395.78,278.19 392.65,305.38 "
   class="st25"
   style="fill:#d48b14" />

		<polygon
   id="polygon6211"
   points="392.65,305.38 395.78,278.19 382.11,278.19 379.76,300.86 "
   class="st24"
   style="fill:#fdb030" />

		<polygon
   id="polygon6213"
   points="385.68,278.19 391.05,278.19 390.33,283.2 385.41,282.16 "
   class="st26"
   style="opacity:0.5;fill:#ab7111" />

		<polygon
   id="polygon6215"
   points="383.15,302.05 387.53,303.58 388.05,299.21 383.49,298.15 "
   class="st26"
   style="opacity:0.5;fill:#ab7111" />

		<line
   id="line6217"
   y2="307.23001"
   x2="409.29999"
   y1="280.29001"
   x1="412.89999"
   class="st23"
   style="fill:none;stroke:#e2342b;stroke-linecap:round;stroke-linejoin:round;stroke-miterlimit:10" />

		<line
   id="line6219"
   y2="302.59"
   x2="384.67999"
   y1="278.19"
   x1="388.67999"
   class="st21"
   style="fill:none;stroke:#631814;stroke-linecap:round;stroke-linejoin:round;stroke-miterlimit:10" />

	</g>

	<ellipse
   id="ellipse6223"
   ry="3.3199999"
   rx="25"
   cy="362.79001"
   cx="150.5"
   class="st28"
   style="opacity:0.5;fill:#0f0a02" />

	<path
   id="path6225"
   d="m 424.41,346.11 c 0.14,-1.83 -10.91,-4.14 -24.68,-5.18 -13.77,-1.03 -25.04,-0.39 -25.17,1.43 -0.14,1.83 10.91,4.14 24.68,5.18 13.76,1.04 25.04,0.4 25.17,-1.43 z"
   class="st28"
   inkscape:connector-curvature="0"
   style="opacity:0.5;fill:#0f0a02" />

	<g
   id="g6259">
		<path
   id="path6227"
   d="m 146.87,183.67 -52.4,-16.6 c -2.69,-0.86 -5.55,-1.06 -8.33,-0.58 -0.72,0.12 -1.29,0.47 -1.7,0.94 -1.12,1.27 -1.02,3.44 0.69,4.46 l 29.36,17.53 28.23,-4.89 z"
   class="st29"
   inkscape:connector-curvature="0"
   style="fill:#cfd9db" />

		<path
   id="path6229"
   d="m 53.05,200.8 6.46,-9.03 c 0.95,-1.38 2.39,-2.3 4.01,-2.6 0.15,-0.03 0.3,-0.05 0.45,-0.06 0.18,-0.03 0.36,-0.04 0.54,-0.04 1.17,-0.03 1.92,1.21 1.36,2.23 l -4.72,8.64 -6.83,0.49 z"
   class="st29"
   inkscape:connector-curvature="0"
   style="fill:#cfd9db" />

		<path
   id="path6231"
   d="m 200.62,189.12 c -9.12,6.61 -110.84,21.77 -141.36,26.19 -6.98,1.02 -14.11,0.79 -20.97,-0.88 -5.2,-1.27 -9.9,-3.13 -9.08,-5.61 0.73,-2.17 5.7,-4.82 18.27,-7.98 0,0 103.03,-21.56 122.55,-23.17 14.51,-1.19 30.29,1.41 33.02,6.01 0.94,1.61 0.33,3.44 -2.43,5.44 z"
   class="st30"
   inkscape:connector-curvature="0"
   style="fill:#b2d8ef" />

		<path
   id="path6233"
   d="m 203.05,183.7 c -11.16,7.01 -116.08,22.65 -147.75,27.25 -7.31,1.06 -14.77,0.83 -21.95,-0.92 -1.45,-0.36 -2.86,-0.75 -4.13,-1.19 0.73,-2.17 5.7,-4.82 18.27,-7.98 0,0 103.03,-21.56 122.55,-23.17 5.9,-0.48 12.01,-0.34 17.36,0.31 4.4,0.53 8.28,1.41 11.13,2.56 2.21,0.87 3.81,1.94 4.52,3.14 z"
   class="st20"
   inkscape:connector-curvature="0"
   style="fill:#ffffff" />

		<path
   id="path6235"
   d="M 148.37,196.24 94.4,236.79 c -2.76,2.09 -6,3.48 -9.42,4.06 -0.88,0.15 -1.68,-0.02 -2.35,-0.4 -1.81,-1.01 -2.58,-3.57 -1.01,-5.45 l 26.9,-32.26 34.7,-5.82 z"
   class="st4"
   inkscape:connector-curvature="0"
   style="fill:#b5d7f0" />

		<path
   id="path6237"
   d="m 143.23,196.91 -52.55,39.75 c -2.39,1.81 -5.13,3.09 -8.04,3.78 -1.81,-1.01 -2.58,-3.57 -1.01,-5.45 l 26.9,-32.26 z"
   class="st20"
   inkscape:connector-curvature="0"
   style="fill:#ffffff" />

		<path
   id="path6239"
   d="M 59.94,204.61 40.63,185.25 c -1.47,-1.48 -3.53,-2.22 -5.61,-2.01 l -7.85,0.77 c -0.4,0.04 -0.6,0.51 -0.34,0.82 l 18.29,22.35 z"
   class="st20"
   inkscape:connector-curvature="0"
   style="fill:#ffffff" />

		<path
   id="path6241"
   d="m 60.98,210.12 -11.03,11.57 c -1.63,1.77 -3.87,2.8 -6.24,2.9 -0.22,0.01 -0.44,0.01 -0.65,0 -0.26,0 -0.52,-0.02 -0.78,-0.05 -1.67,-0.19 -2.49,-2.12 -1.49,-3.46 l 8.46,-11.36 9.83,0.68 z"
   class="st4"
   inkscape:connector-curvature="0"
   style="fill:#b5d7f0" />

		<path
   id="path6243"
   d="m 60.45,207.67 -12.53,13.08 c -1.47,1.59 -3.77,3.8 -5.65,3.78 -1.68,-0.02 -2.49,-2.12 -1.49,-3.46 l 8.46,-11.36 z"
   class="st20"
   inkscape:connector-curvature="0"
   style="fill:#ffffff" />

		<path
   id="path6245"
   d="m 105.99,198.79 v 0 c -1.07,0.19 -2.08,-0.53 -2.27,-1.59 l -0.3,-1.72 c -0.19,-1.07 0.53,-2.08 1.59,-2.27 v 0 c 1.07,-0.19 2.08,0.53 2.27,1.59 l 0.3,1.72 c 0.19,1.07 -0.53,2.09 -1.59,2.27 z"
   class="st31"
   inkscape:connector-curvature="0"
   style="fill:#b0bdc6" />

		<path
   id="path6247"
   d="m 114.22,197.35 v 0 c -1.07,0.19 -2.08,-0.53 -2.27,-1.59 l -0.3,-1.72 c -0.19,-1.07 0.53,-2.08 1.59,-2.27 v 0 c 1.07,-0.19 2.08,0.53 2.27,1.59 l 0.3,1.72 c 0.19,1.07 -0.52,2.08 -1.59,2.27 z"
   class="st31"
   inkscape:connector-curvature="0"
   style="fill:#b0bdc6" />

		<path
   id="path6249"
   d="m 122.45,195.91 v 0 c -1.07,0.19 -2.08,-0.53 -2.27,-1.59 l -0.3,-1.72 c -0.19,-1.07 0.53,-2.08 1.59,-2.27 v 0 c 1.07,-0.19 2.08,0.53 2.27,1.59 l 0.3,1.72 c 0.19,1.06 -0.52,2.08 -1.59,2.27 z"
   class="st31"
   inkscape:connector-curvature="0"
   style="fill:#b0bdc6" />

		<path
   id="path6251"
   d="m 130.69,194.46 v 0 c -1.07,0.19 -2.08,-0.53 -2.27,-1.59 l -0.3,-1.72 c -0.19,-1.07 0.53,-2.08 1.59,-2.27 v 0 c 1.07,-0.19 2.08,0.53 2.27,1.59 l 0.3,1.72 c 0.19,1.07 -0.52,2.09 -1.59,2.27 z"
   class="st31"
   inkscape:connector-curvature="0"
   style="fill:#b0bdc6" />

		<path
   id="path6253"
   d="m 138.92,193.02 v 0 c -1.07,0.19 -2.08,-0.53 -2.27,-1.59 l -0.3,-1.72 c -0.19,-1.07 0.53,-2.08 1.59,-2.27 v 0 c 1.07,-0.19 2.08,0.53 2.27,1.59 l 0.3,1.72 c 0.19,1.07 -0.52,2.08 -1.59,2.27 z"
   class="st31"
   inkscape:connector-curvature="0"
   style="fill:#b0bdc6" />

		<path
   id="path6255"
   d="m 147.16,191.58 v 0 c -1.07,0.19 -2.08,-0.53 -2.27,-1.59 l -0.3,-1.72 c -0.19,-1.07 0.53,-2.08 1.59,-2.27 v 0 c 1.07,-0.19 2.08,0.53 2.27,1.59 l 0.3,1.72 c 0.19,1.06 -0.53,2.08 -1.59,2.27 z"
   class="st31"
   inkscape:connector-curvature="0"
   style="fill:#b0bdc6" />

		<path
   id="path6257"
   d="m 198.52,180.55 c -2.22,1.09 -9.6,4.33 -22.7,6.13 l -1.23,-5.45 c 0,0 7.7,-1.63 12.8,-3.23 4.4,0.52 8.28,1.4 11.13,2.55 z"
   class="st31"
   inkscape:connector-curvature="0"
   style="fill:#b0bdc6" />

	</g>

	<g
   id="g6267">
		<text
   id="text6265"
   transform="translate(126.2241,70.7593)">
  <tspan
     id="tspan6261"
     class="st20 st32 st33"
     y="0"
     x="0"
     style="font-size:35px;font-family:Montserrat-Black;fill:#ffffff">INTERNATIONAL</tspan>
  <tspan
     id="tspan6263"
     class="st20 st32 st33"
     y="36"
     x="74.690002"
     style="font-size:35px;font-family:Montserrat-Black;fill:#ffffff">TRADE</tspan>
</text>

	</g>

</g>
      <g
         id="DESIGNED_BY_FREEPIK">
	<g
   id="XMLID_1_">
		<g
   id="g6309">
			<g
   id="XMLID_490_">
				<g
   id="g6306">
					<g
   id="XMLID_526_">
						<path
   d="m 181.07,477.65 c -0.25,0 -0.43,0.08 -0.57,0.26 -0.13,0.17 -0.2,0.42 -0.2,0.75 v 2.39 c -0.3,-0.33 -0.62,-0.58 -0.94,-0.74 -0.32,-0.16 -0.71,-0.24 -1.18,-0.24 -0.81,0 -1.46,0.28 -1.95,0.85 -0.49,0.57 -0.74,1.36 -0.74,2.37 0,0.48 0.06,0.92 0.19,1.34 0.12,0.41 0.31,0.77 0.55,1.07 0.24,0.3 0.53,0.54 0.86,0.7 0.33,0.16 0.69,0.25 1.08,0.25 0.29,0 0.56,-0.04 0.81,-0.12 0.25,-0.08 0.48,-0.2 0.69,-0.36 0.21,-0.16 0.43,-0.36 0.64,-0.61 v 0.16 c 0,0.3 0.07,0.52 0.22,0.69 0.14,0.16 0.33,0.24 0.55,0.24 0.23,0 0.41,-0.08 0.55,-0.23 0.14,-0.15 0.21,-0.39 0.21,-0.69 v -7.15 c 0,-0.31 -0.07,-0.53 -0.2,-0.69 -0.13,-0.16 -0.32,-0.24 -0.57,-0.24 z m -1.06,6.84 c -0.14,0.31 -0.33,0.53 -0.56,0.68 -0.24,0.15 -0.5,0.22 -0.78,0.22 -0.28,0 -0.54,-0.08 -0.78,-0.24 -0.24,-0.16 -0.42,-0.39 -0.56,-0.7 -0.14,-0.31 -0.2,-0.68 -0.2,-1.12 0,-0.42 0.06,-0.78 0.19,-1.1 0.13,-0.32 0.31,-0.56 0.54,-0.72 0.23,-0.17 0.5,-0.25 0.8,-0.25 0.28,0 0.55,0.08 0.79,0.25 0.24,0.16 0.43,0.4 0.57,0.71 0.14,0.31 0.21,0.68 0.21,1.11 -0.01,0.47 -0.08,0.86 -0.22,1.16 z"
   class="st20"
   id="XMLID_548_"
   inkscape:connector-curvature="0"
   style="fill:#ffffff" />

						<path
   d="m 188.44,483.57 c 0.23,-0.12 0.35,-0.39 0.35,-0.79 0,-0.44 -0.11,-0.87 -0.34,-1.29 -0.23,-0.42 -0.56,-0.77 -1.02,-1.04 -0.45,-0.27 -1,-0.4 -1.63,-0.4 -0.49,0 -0.93,0.08 -1.33,0.23 -0.4,0.16 -0.74,0.38 -1.01,0.67 -0.27,0.29 -0.48,0.64 -0.62,1.05 -0.14,0.41 -0.21,0.85 -0.21,1.33 0,1.02 0.29,1.82 0.87,2.42 0.58,0.59 1.39,0.89 2.43,0.89 0.46,0 0.86,-0.06 1.21,-0.18 0.35,-0.12 0.64,-0.27 0.87,-0.45 0.23,-0.18 0.4,-0.37 0.52,-0.56 0.11,-0.2 0.17,-0.37 0.17,-0.51 0,-0.17 -0.05,-0.29 -0.16,-0.39 -0.1,-0.09 -0.24,-0.14 -0.4,-0.14 -0.15,0 -0.27,0.04 -0.36,0.11 -0.2,0.19 -0.37,0.34 -0.49,0.45 -0.13,0.11 -0.26,0.22 -0.42,0.31 -0.15,0.1 -0.31,0.17 -0.47,0.21 -0.16,0.05 -0.34,0.07 -0.53,0.07 -0.29,0 -0.55,-0.07 -0.79,-0.21 -0.24,-0.14 -0.43,-0.35 -0.58,-0.64 -0.15,-0.28 -0.22,-0.61 -0.22,-0.97 h 3.17 c 0.43,0.01 0.76,-0.05 0.99,-0.17 z m -4.16,-0.74 c 0.06,-0.55 0.21,-0.96 0.47,-1.24 0.26,-0.28 0.59,-0.42 0.99,-0.42 0.42,0 0.76,0.14 1.02,0.41 0.26,0.27 0.41,0.69 0.45,1.24 h -2.93 z"
   class="st20"
   id="XMLID_545_"
   inkscape:connector-curvature="0"
   style="fill:#ffffff" />

						<path
   d="m 193.87,483.14 c -0.32,-0.17 -0.73,-0.32 -1.23,-0.44 -0.42,-0.1 -0.76,-0.19 -1,-0.26 -0.24,-0.07 -0.43,-0.16 -0.58,-0.27 -0.14,-0.11 -0.21,-0.25 -0.21,-0.42 0,-0.19 0.1,-0.34 0.29,-0.47 0.19,-0.13 0.44,-0.19 0.73,-0.19 0.29,0 0.51,0.05 0.68,0.14 0.17,0.1 0.31,0.22 0.43,0.38 0.15,0.19 0.28,0.33 0.4,0.43 0.12,0.1 0.26,0.14 0.42,0.14 0.23,0 0.41,-0.06 0.53,-0.18 0.12,-0.12 0.19,-0.27 0.19,-0.46 0,-0.17 -0.06,-0.34 -0.17,-0.52 -0.12,-0.18 -0.29,-0.34 -0.51,-0.49 -0.22,-0.15 -0.5,-0.26 -0.84,-0.35 -0.33,-0.09 -0.71,-0.13 -1.13,-0.13 -0.53,0 -0.99,0.09 -1.37,0.26 -0.38,0.17 -0.66,0.4 -0.86,0.69 -0.19,0.29 -0.29,0.6 -0.29,0.92 0,0.36 0.1,0.67 0.31,0.92 0.21,0.25 0.49,0.45 0.84,0.6 0.35,0.15 0.8,0.3 1.36,0.44 0.49,0.12 0.85,0.24 1.07,0.37 0.22,0.13 0.32,0.34 0.32,0.62 0,0.19 -0.1,0.35 -0.31,0.5 -0.21,0.14 -0.47,0.22 -0.8,0.22 -0.4,0 -0.72,-0.07 -0.95,-0.21 -0.23,-0.14 -0.43,-0.36 -0.6,-0.65 -0.08,-0.15 -0.17,-0.27 -0.26,-0.35 -0.09,-0.08 -0.22,-0.12 -0.39,-0.12 -0.19,0 -0.35,0.06 -0.48,0.19 -0.13,0.13 -0.19,0.28 -0.19,0.46 0,0.27 0.1,0.54 0.3,0.8 0.2,0.27 0.5,0.49 0.92,0.67 0.42,0.18 0.91,0.27 1.5,0.27 0.61,0 1.13,-0.08 1.55,-0.25 0.43,-0.16 0.75,-0.41 0.96,-0.72 0.22,-0.32 0.33,-0.7 0.33,-1.15 0,-0.3 -0.08,-0.56 -0.25,-0.79 -0.15,-0.23 -0.39,-0.44 -0.71,-0.6 z"
   class="st20"
   id="XMLID_544_"
   inkscape:connector-curvature="0"
   style="fill:#ffffff" />

						<path
   d="m 196.48,480.06 c -0.24,0 -0.43,0.08 -0.58,0.24 -0.15,0.16 -0.22,0.4 -0.22,0.72 v 4.64 c 0,0.32 0.07,0.56 0.22,0.73 0.15,0.17 0.34,0.26 0.58,0.26 0.24,0 0.43,-0.08 0.59,-0.25 0.15,-0.17 0.23,-0.41 0.23,-0.74 v -4.68 c 0,-0.29 -0.08,-0.51 -0.23,-0.68 -0.16,-0.16 -0.36,-0.24 -0.59,-0.24 z"
   class="st20"
   id="XMLID_542_"
   inkscape:connector-curvature="0"
   style="fill:#ffffff" />

						<path
   d="m 196.49,477.72 c -0.22,0 -0.41,0.07 -0.57,0.22 -0.16,0.15 -0.25,0.34 -0.25,0.57 0,0.25 0.08,0.45 0.24,0.59 0.16,0.14 0.35,0.21 0.58,0.21 0.22,0 0.41,-0.07 0.56,-0.21 0.16,-0.14 0.24,-0.34 0.24,-0.58 0,-0.26 -0.08,-0.45 -0.24,-0.59 -0.16,-0.14 -0.35,-0.21 -0.56,-0.21 z"
   class="st20"
   id="XMLID_541_"
   inkscape:connector-curvature="0"
   style="fill:#ffffff" />

						<path
   d="m 203.62,480.06 c -0.22,0 -0.4,0.08 -0.53,0.23 -0.14,0.15 -0.21,0.37 -0.21,0.65 v 0.22 c -0.29,-0.38 -0.6,-0.65 -0.94,-0.83 -0.34,-0.18 -0.73,-0.26 -1.19,-0.26 -0.38,0 -0.74,0.07 -1.06,0.2 -0.32,0.14 -0.6,0.34 -0.85,0.61 -0.24,0.27 -0.43,0.6 -0.57,0.99 -0.13,0.39 -0.2,0.83 -0.2,1.32 0,0.65 0.11,1.23 0.33,1.73 0.22,0.5 0.53,0.89 0.93,1.16 0.41,0.28 0.88,0.42 1.42,0.42 0.45,0 0.84,-0.09 1.17,-0.27 0.33,-0.18 0.61,-0.45 0.86,-0.8 -0.01,0.53 -0.02,0.92 -0.04,1.16 -0.02,0.24 -0.07,0.46 -0.16,0.67 -0.09,0.21 -0.26,0.37 -0.49,0.49 -0.23,0.12 -0.56,0.18 -0.98,0.18 -0.21,0 -0.39,-0.02 -0.55,-0.06 -0.16,-0.04 -0.29,-0.1 -0.41,-0.17 -0.11,-0.08 -0.22,-0.17 -0.31,-0.28 -0.09,-0.11 -0.18,-0.22 -0.27,-0.32 -0.18,-0.21 -0.39,-0.31 -0.62,-0.31 -0.19,0 -0.35,0.06 -0.49,0.19 -0.13,0.12 -0.2,0.29 -0.2,0.48 0,0.26 0.12,0.52 0.36,0.76 0.24,0.25 0.58,0.45 1.01,0.61 0.44,0.16 0.94,0.23 1.5,0.23 0.61,0 1.12,-0.06 1.53,-0.18 0.41,-0.12 0.74,-0.31 0.99,-0.56 0.25,-0.25 0.44,-0.57 0.55,-0.96 0.12,-0.39 0.17,-0.85 0.17,-1.39 v -4.71 c 0,-0.38 -0.05,-0.68 -0.15,-0.88 -0.08,-0.22 -0.29,-0.32 -0.6,-0.32 z m -1.03,4.37 c -0.15,0.29 -0.35,0.51 -0.59,0.65 -0.24,0.14 -0.49,0.22 -0.76,0.22 -0.46,0 -0.83,-0.17 -1.11,-0.5 -0.29,-0.34 -0.43,-0.83 -0.43,-1.49 0,-0.65 0.14,-1.15 0.42,-1.5 0.28,-0.35 0.65,-0.53 1.11,-0.53 0.48,0 0.86,0.18 1.15,0.55 0.29,0.37 0.44,0.88 0.44,1.54 0,0.41 -0.08,0.77 -0.23,1.06 z"
   class="st20"
   id="XMLID_538_"
   inkscape:connector-curvature="0"
   style="fill:#ffffff" />

						<path
   d="m 210.97,481.13 c -0.17,-0.34 -0.42,-0.6 -0.75,-0.79 -0.34,-0.19 -0.72,-0.28 -1.15,-0.28 -0.44,0 -0.83,0.09 -1.17,0.26 -0.34,0.18 -0.65,0.45 -0.93,0.83 v -0.2 c 0,-0.19 -0.03,-0.36 -0.1,-0.49 -0.07,-0.13 -0.16,-0.23 -0.28,-0.3 -0.12,-0.07 -0.24,-0.1 -0.39,-0.1 -0.23,0 -0.42,0.08 -0.55,0.23 -0.13,0.15 -0.2,0.38 -0.2,0.69 v 4.68 c 0,0.32 0.08,0.56 0.23,0.73 0.15,0.17 0.34,0.26 0.58,0.26 0.24,0 0.44,-0.08 0.59,-0.25 0.15,-0.16 0.23,-0.41 0.23,-0.74 v -2.03 c 0,-0.66 0.04,-1.11 0.12,-1.35 0.11,-0.3 0.29,-0.54 0.52,-0.71 0.24,-0.17 0.5,-0.26 0.79,-0.26 0.44,0 0.74,0.14 0.89,0.42 0.15,0.28 0.22,0.69 0.22,1.23 v 2.7 c 0,0.32 0.07,0.56 0.23,0.73 0.15,0.17 0.35,0.26 0.59,0.26 0.24,0 0.43,-0.08 0.58,-0.25 0.15,-0.17 0.22,-0.41 0.22,-0.74 v -3.02 c 0,-0.36 -0.02,-0.65 -0.05,-0.88 -0.04,-0.22 -0.11,-0.43 -0.22,-0.63 z"
   class="st20"
   id="XMLID_537_"
   inkscape:connector-curvature="0"
   style="fill:#ffffff" />

						<path
   d="m 217.81,483.57 c 0.23,-0.12 0.35,-0.39 0.35,-0.79 0,-0.44 -0.11,-0.87 -0.34,-1.29 -0.23,-0.42 -0.57,-0.77 -1.02,-1.04 -0.45,-0.27 -1,-0.4 -1.63,-0.4 -0.49,0 -0.93,0.08 -1.33,0.23 -0.4,0.16 -0.74,0.38 -1.01,0.67 -0.27,0.29 -0.48,0.64 -0.62,1.05 -0.14,0.41 -0.21,0.85 -0.21,1.33 0,1.02 0.29,1.82 0.87,2.42 0.58,0.59 1.39,0.89 2.43,0.89 0.46,0 0.86,-0.06 1.21,-0.18 0.35,-0.12 0.64,-0.27 0.87,-0.45 0.23,-0.18 0.4,-0.37 0.52,-0.56 0.12,-0.2 0.17,-0.37 0.17,-0.51 0,-0.17 -0.05,-0.29 -0.15,-0.39 -0.1,-0.09 -0.24,-0.14 -0.4,-0.14 -0.15,0 -0.27,0.04 -0.36,0.11 -0.2,0.19 -0.37,0.34 -0.49,0.45 -0.13,0.11 -0.27,0.22 -0.42,0.31 -0.15,0.1 -0.31,0.17 -0.47,0.21 -0.16,0.05 -0.34,0.07 -0.53,0.07 -0.29,0 -0.55,-0.07 -0.79,-0.21 -0.24,-0.14 -0.43,-0.35 -0.58,-0.64 -0.14,-0.28 -0.22,-0.61 -0.22,-0.97 h 3.17 c 0.42,0.01 0.75,-0.05 0.98,-0.17 z m -4.15,-0.74 c 0.06,-0.55 0.21,-0.96 0.47,-1.24 0.26,-0.28 0.59,-0.42 0.99,-0.42 0.42,0 0.76,0.14 1.02,0.41 0.26,0.27 0.41,0.69 0.45,1.24 h -2.93 z"
   class="st20"
   id="XMLID_534_"
   inkscape:connector-curvature="0"
   style="fill:#ffffff" />

						<path
   d="m 224.2,477.65 c -0.25,0 -0.43,0.08 -0.57,0.26 -0.13,0.17 -0.2,0.42 -0.2,0.75 v 2.39 c -0.3,-0.33 -0.62,-0.58 -0.94,-0.74 -0.32,-0.16 -0.71,-0.24 -1.18,-0.24 -0.81,0 -1.46,0.28 -1.95,0.85 -0.49,0.57 -0.74,1.36 -0.74,2.37 0,0.48 0.06,0.92 0.19,1.34 0.12,0.41 0.31,0.77 0.55,1.07 0.24,0.3 0.53,0.54 0.86,0.7 0.33,0.16 0.69,0.25 1.08,0.25 0.29,0 0.56,-0.04 0.81,-0.12 0.25,-0.08 0.48,-0.2 0.69,-0.36 0.21,-0.16 0.43,-0.36 0.64,-0.61 v 0.16 c 0,0.3 0.07,0.52 0.22,0.69 0.14,0.16 0.33,0.24 0.55,0.24 0.23,0 0.41,-0.08 0.55,-0.23 0.14,-0.15 0.21,-0.39 0.21,-0.69 v -7.15 c 0,-0.31 -0.07,-0.53 -0.2,-0.69 -0.13,-0.16 -0.32,-0.24 -0.57,-0.24 z m -1.06,6.84 c -0.14,0.31 -0.33,0.53 -0.56,0.68 -0.24,0.15 -0.5,0.22 -0.78,0.22 -0.28,0 -0.54,-0.08 -0.78,-0.24 -0.24,-0.16 -0.43,-0.39 -0.56,-0.7 -0.14,-0.31 -0.2,-0.68 -0.2,-1.12 0,-0.42 0.06,-0.78 0.19,-1.1 0.13,-0.32 0.31,-0.56 0.54,-0.72 0.23,-0.17 0.5,-0.25 0.8,-0.25 0.29,0 0.55,0.08 0.79,0.25 0.24,0.16 0.43,0.4 0.57,0.71 0.14,0.31 0.21,0.68 0.21,1.11 -0.01,0.47 -0.08,0.86 -0.22,1.16 z"
   class="st20"
   id="XMLID_531_"
   inkscape:connector-curvature="0"
   style="fill:#ffffff" />

						<path
   d="m 233.58,480.45 c -0.41,-0.25 -0.88,-0.38 -1.42,-0.38 -0.47,0 -0.86,0.08 -1.18,0.25 -0.32,0.17 -0.63,0.41 -0.93,0.73 v -2.48 c 0,-0.3 -0.07,-0.52 -0.2,-0.69 -0.13,-0.16 -0.33,-0.24 -0.58,-0.24 -0.24,0 -0.42,0.08 -0.56,0.25 -0.13,0.17 -0.2,0.42 -0.2,0.74 v 7.08 c 0,0.3 0.07,0.54 0.2,0.69 0.14,0.16 0.32,0.23 0.55,0.23 0.23,0 0.41,-0.08 0.56,-0.23 0.15,-0.16 0.22,-0.39 0.22,-0.69 v -0.16 c 0.18,0.21 0.32,0.36 0.43,0.46 0.11,0.1 0.24,0.2 0.39,0.3 0.15,0.1 0.34,0.18 0.56,0.23 0.22,0.06 0.45,0.09 0.7,0.09 0.41,0 0.78,-0.08 1.12,-0.25 0.34,-0.16 0.63,-0.4 0.86,-0.7 0.24,-0.3 0.42,-0.66 0.54,-1.07 0.12,-0.41 0.19,-0.86 0.19,-1.35 0,-0.67 -0.11,-1.24 -0.34,-1.72 -0.19,-0.46 -0.5,-0.83 -0.91,-1.09 z m -0.79,4.42 c -0.29,0.35 -0.65,0.53 -1.05,0.53 -0.48,0 -0.87,-0.17 -1.16,-0.52 -0.29,-0.35 -0.44,-0.84 -0.44,-1.49 0,-0.44 0.07,-0.82 0.21,-1.14 0.14,-0.32 0.33,-0.56 0.57,-0.73 0.24,-0.17 0.52,-0.25 0.83,-0.25 0.3,0 0.56,0.08 0.79,0.25 0.23,0.17 0.4,0.41 0.52,0.72 0.12,0.31 0.18,0.68 0.18,1.1 -0.01,0.66 -0.15,1.17 -0.45,1.53 z"
   class="st20"
   id="XMLID_528_"
   inkscape:connector-curvature="0"
   style="fill:#ffffff" />

						<path
   d="m 240.53,480.16 c -0.11,-0.07 -0.23,-0.1 -0.35,-0.1 -0.17,0 -0.3,0.03 -0.39,0.09 -0.09,0.06 -0.18,0.17 -0.26,0.34 -0.08,0.17 -0.18,0.41 -0.28,0.71 l -1.3,3.71 -1.37,-3.99 c -0.09,-0.28 -0.2,-0.49 -0.31,-0.64 -0.12,-0.15 -0.3,-0.22 -0.53,-0.22 -0.13,0 -0.26,0.04 -0.39,0.11 -0.12,0.07 -0.22,0.17 -0.29,0.29 -0.07,0.12 -0.11,0.25 -0.11,0.39 0,0.13 0.06,0.34 0.18,0.63 l 1.99,5.02 -0.15,0.36 c -0.11,0.26 -0.21,0.47 -0.29,0.6 -0.09,0.14 -0.18,0.23 -0.29,0.29 -0.11,0.06 -0.25,0.08 -0.44,0.08 -0.08,0 -0.16,-0.01 -0.27,-0.04 -0.08,-0.02 -0.17,-0.04 -0.26,-0.04 -0.22,0 -0.39,0.05 -0.5,0.15 -0.11,0.1 -0.17,0.24 -0.17,0.43 0,0.27 0.12,0.46 0.36,0.56 0.24,0.1 0.59,0.15 1.07,0.15 0.49,0 0.87,-0.07 1.16,-0.22 0.29,-0.15 0.52,-0.36 0.69,-0.64 0.17,-0.28 0.35,-0.66 0.53,-1.15 l 2.11,-5.53 c 0.05,-0.14 0.09,-0.28 0.13,-0.42 0.04,-0.14 0.06,-0.25 0.08,-0.32 0,-0.12 -0.03,-0.24 -0.09,-0.35 -0.06,-0.1 -0.15,-0.19 -0.26,-0.25 z"
   class="st20"
   id="XMLID_527_"
   inkscape:connector-curvature="0"
   style="fill:#ffffff" />

					</g>

					<g
   id="XMLID_505_">
						<path
   d="m 262.93,477.65 c -0.53,0 -0.95,0.07 -1.26,0.2 -0.31,0.14 -0.53,0.35 -0.65,0.65 -0.13,0.3 -0.19,0.7 -0.19,1.21 v 0.49 h -0.39 c -0.54,0 -0.81,0.19 -0.81,0.58 0,0.17 0.07,0.32 0.2,0.42 0.13,0.11 0.32,0.16 0.56,0.16 h 0.45 v 4.29 c 0,0.32 0.08,0.56 0.23,0.73 0.15,0.17 0.34,0.25 0.57,0.25 0.24,0 0.44,-0.08 0.59,-0.25 0.16,-0.17 0.23,-0.41 0.23,-0.73 v -4.29 h 0.4 c 0.29,0 0.52,-0.04 0.68,-0.11 0.17,-0.07 0.25,-0.24 0.25,-0.5 0,-0.37 -0.31,-0.56 -0.93,-0.56 h -0.4 v -0.39 c 0,-0.32 0.04,-0.57 0.12,-0.74 0.09,-0.17 0.27,-0.26 0.57,-0.26 0.11,0 0.24,0.01 0.39,0.03 0.16,0.03 0.27,0.04 0.33,0.04 0.13,0 0.25,-0.05 0.35,-0.16 0.1,-0.11 0.15,-0.24 0.15,-0.38 -0.02,-0.45 -0.49,-0.68 -1.44,-0.68 z"
   class="st20"
   id="XMLID_525_"
   inkscape:connector-curvature="0"
   style="fill:#ffffff" />

						<path
   d="m 268.09,480.31 c -0.32,-0.17 -0.65,-0.26 -0.99,-0.26 -0.34,0 -0.61,0.08 -0.82,0.26 -0.2,0.17 -0.4,0.42 -0.59,0.76 -0.01,-0.33 -0.08,-0.58 -0.2,-0.76 -0.12,-0.17 -0.31,-0.26 -0.58,-0.26 -0.53,0 -0.79,0.36 -0.79,1.09 v 4.51 c 0,0.32 0.08,0.57 0.23,0.73 0.15,0.17 0.34,0.25 0.58,0.25 0.24,0 0.43,-0.08 0.59,-0.25 0.15,-0.16 0.23,-0.41 0.23,-0.74 v -1.35 c 0,-0.49 0.01,-0.9 0.04,-1.24 0.03,-0.34 0.09,-0.63 0.17,-0.88 0.08,-0.24 0.2,-0.43 0.35,-0.55 0.15,-0.12 0.34,-0.19 0.58,-0.19 0.17,0 0.37,0.04 0.6,0.11 0.23,0.07 0.37,0.11 0.43,0.11 0.16,0 0.3,-0.06 0.44,-0.19 0.13,-0.13 0.2,-0.29 0.2,-0.49 0.01,-0.26 -0.15,-0.49 -0.47,-0.66 z"
   class="st20"
   id="XMLID_524_"
   inkscape:connector-curvature="0"
   style="fill:#ffffff" />

						<path
   d="m 274.18,483.57 c 0.23,-0.12 0.35,-0.39 0.35,-0.79 0,-0.44 -0.11,-0.87 -0.34,-1.3 -0.22,-0.42 -0.57,-0.77 -1.02,-1.03 -0.45,-0.27 -1,-0.4 -1.63,-0.4 -0.49,0 -0.93,0.08 -1.33,0.23 -0.4,0.16 -0.74,0.38 -1.01,0.67 -0.28,0.29 -0.48,0.64 -0.62,1.05 -0.14,0.41 -0.22,0.86 -0.22,1.33 0,1.02 0.29,1.82 0.87,2.42 0.58,0.59 1.38,0.89 2.43,0.89 0.45,0 0.86,-0.06 1.21,-0.18 0.35,-0.12 0.64,-0.27 0.87,-0.45 0.23,-0.18 0.41,-0.37 0.52,-0.57 0.11,-0.19 0.17,-0.36 0.17,-0.51 0,-0.17 -0.05,-0.29 -0.15,-0.39 -0.11,-0.09 -0.24,-0.14 -0.41,-0.14 -0.15,0 -0.27,0.04 -0.36,0.11 -0.2,0.19 -0.37,0.34 -0.49,0.45 -0.13,0.11 -0.26,0.22 -0.42,0.31 -0.15,0.1 -0.31,0.17 -0.47,0.21 -0.16,0.05 -0.34,0.07 -0.53,0.07 -0.29,0 -0.55,-0.07 -0.79,-0.21 -0.24,-0.14 -0.43,-0.36 -0.58,-0.64 -0.14,-0.28 -0.22,-0.61 -0.22,-0.97 h 3.17 c 0.44,0.02 0.77,-0.04 1,-0.16 z m -4.16,-0.74 c 0.05,-0.55 0.21,-0.96 0.47,-1.24 0.26,-0.28 0.59,-0.42 0.99,-0.42 0.43,0 0.76,0.14 1.03,0.41 0.26,0.27 0.41,0.69 0.45,1.24 h -2.94 z"
   class="st20"
   id="XMLID_521_"
   inkscape:connector-curvature="0"
   style="fill:#ffffff" />

						<path
   d="m 279.92,480.45 c -0.46,-0.27 -1,-0.4 -1.63,-0.4 -0.49,0 -0.93,0.08 -1.33,0.23 -0.4,0.16 -0.74,0.38 -1.01,0.67 -0.27,0.29 -0.48,0.64 -0.62,1.05 -0.14,0.41 -0.22,0.86 -0.22,1.33 0,1.02 0.29,1.82 0.87,2.42 0.58,0.59 1.39,0.89 2.43,0.89 0.45,0 0.86,-0.06 1.21,-0.18 0.35,-0.12 0.64,-0.27 0.87,-0.45 0.23,-0.18 0.41,-0.37 0.52,-0.57 0.12,-0.19 0.17,-0.36 0.17,-0.51 0,-0.17 -0.05,-0.29 -0.15,-0.39 -0.1,-0.09 -0.24,-0.14 -0.41,-0.14 -0.15,0 -0.27,0.04 -0.36,0.11 -0.2,0.19 -0.37,0.34 -0.49,0.45 -0.13,0.11 -0.26,0.22 -0.42,0.31 -0.15,0.1 -0.31,0.17 -0.47,0.21 -0.16,0.05 -0.34,0.07 -0.53,0.07 -0.29,0 -0.56,-0.07 -0.79,-0.21 -0.24,-0.14 -0.43,-0.36 -0.58,-0.64 -0.14,-0.28 -0.22,-0.61 -0.22,-0.97 h 3.17 c 0.42,0 0.75,-0.06 0.98,-0.18 0.23,-0.12 0.35,-0.39 0.35,-0.79 0,-0.44 -0.12,-0.87 -0.34,-1.3 -0.21,-0.4 -0.55,-0.75 -1,-1.01 z m -3.15,2.38 c 0.05,-0.55 0.21,-0.96 0.47,-1.24 0.26,-0.28 0.59,-0.42 1,-0.42 0.43,0 0.76,0.14 1.03,0.41 0.26,0.27 0.41,0.69 0.45,1.24 h -2.95 z"
   class="st20"
   id="XMLID_518_"
   inkscape:connector-curvature="0"
   style="fill:#ffffff" />

						<path
   d="m 286.93,480.45 c -0.42,-0.26 -0.88,-0.39 -1.38,-0.39 -0.41,0 -0.79,0.09 -1.11,0.27 -0.33,0.18 -0.65,0.45 -0.95,0.83 v -0.19 c 0,-0.3 -0.07,-0.52 -0.22,-0.68 -0.14,-0.16 -0.33,-0.23 -0.56,-0.23 -0.23,0 -0.42,0.08 -0.55,0.23 -0.13,0.16 -0.2,0.38 -0.2,0.69 v 7 c 0,0.35 0.05,0.62 0.15,0.81 0.1,0.18 0.3,0.27 0.61,0.27 0.52,0 0.78,-0.36 0.78,-1.07 v -2.43 c 0.29,0.36 0.59,0.63 0.9,0.82 0.31,0.19 0.7,0.28 1.17,0.28 0.39,0 0.74,-0.08 1.08,-0.23 0.33,-0.15 0.62,-0.37 0.87,-0.65 0.24,-0.28 0.44,-0.63 0.58,-1.05 0.14,-0.42 0.21,-0.88 0.21,-1.38 0,-0.68 -0.12,-1.26 -0.37,-1.76 -0.26,-0.5 -0.59,-0.88 -1.01,-1.14 z m -0.47,4.01 c -0.14,0.31 -0.32,0.55 -0.55,0.7 -0.23,0.15 -0.48,0.23 -0.75,0.23 -0.45,0 -0.83,-0.18 -1.13,-0.54 -0.31,-0.36 -0.46,-0.86 -0.46,-1.5 0,-0.69 0.15,-1.2 0.46,-1.56 0.31,-0.35 0.68,-0.53 1.13,-0.53 0.28,0 0.54,0.08 0.77,0.25 0.23,0.16 0.41,0.4 0.54,0.7 0.13,0.31 0.2,0.67 0.2,1.1 0,0.46 -0.07,0.83 -0.21,1.15 z"
   class="st20"
   id="XMLID_515_"
   inkscape:connector-curvature="0"
   style="fill:#ffffff" />

						<path
   d="m 289.91,480.06 c -0.24,0 -0.43,0.08 -0.58,0.24 -0.15,0.16 -0.22,0.4 -0.22,0.72 v 4.64 c 0,0.31 0.08,0.56 0.22,0.73 0.15,0.17 0.34,0.25 0.58,0.25 0.24,0 0.43,-0.08 0.59,-0.25 0.15,-0.16 0.23,-0.41 0.23,-0.73 v -4.69 c 0,-0.29 -0.08,-0.51 -0.23,-0.68 -0.16,-0.15 -0.35,-0.23 -0.59,-0.23 z"
   class="st20"
   id="XMLID_514_"
   inkscape:connector-curvature="0"
   style="fill:#ffffff" />

						<path
   d="m 289.92,477.72 c -0.22,0 -0.41,0.08 -0.57,0.22 -0.17,0.15 -0.25,0.34 -0.25,0.57 0,0.25 0.08,0.45 0.24,0.59 0.16,0.14 0.35,0.21 0.58,0.21 0.22,0 0.41,-0.07 0.57,-0.21 0.16,-0.14 0.24,-0.33 0.24,-0.58 0,-0.26 -0.08,-0.45 -0.24,-0.59 -0.17,-0.15 -0.35,-0.21 -0.57,-0.21 z"
   class="st20"
   id="XMLID_513_"
   inkscape:connector-curvature="0"
   style="fill:#ffffff" />

						<path
   d="m 297.27,485.09 -1.66,-2.61 0.86,-0.79 c 0.44,-0.4 0.66,-0.71 0.66,-0.95 0,-0.19 -0.07,-0.35 -0.2,-0.48 -0.14,-0.13 -0.31,-0.19 -0.51,-0.19 -0.17,0 -0.31,0.04 -0.43,0.13 -0.12,0.09 -0.29,0.25 -0.52,0.49 l -1.82,1.91 v -3.93 c 0,-0.33 -0.07,-0.58 -0.22,-0.75 -0.15,-0.17 -0.34,-0.26 -0.59,-0.26 -0.26,0 -0.46,0.09 -0.6,0.28 -0.14,0.19 -0.21,0.46 -0.21,0.82 v 6.91 c 0,0.32 0.07,0.57 0.21,0.73 0.14,0.17 0.34,0.25 0.59,0.25 0.21,0 0.41,-0.08 0.57,-0.25 0.16,-0.17 0.25,-0.41 0.25,-0.72 v -1.29 l 0.88,-0.83 1.43,2.35 c 0.18,0.28 0.33,0.47 0.44,0.58 0.11,0.11 0.26,0.16 0.46,0.16 0.23,0 0.41,-0.07 0.55,-0.22 0.14,-0.15 0.21,-0.35 0.21,-0.61 0,-0.09 -0.03,-0.19 -0.08,-0.29 -0.06,-0.1 -0.15,-0.25 -0.27,-0.44 z"
   class="st20"
   id="XMLID_512_"
   inkscape:connector-curvature="0"
   style="fill:#ffffff" />

						<path
   d="m 299.46,484.86 c -0.25,0 -0.46,0.09 -0.63,0.26 -0.17,0.17 -0.26,0.38 -0.26,0.62 0,0.29 0.09,0.51 0.27,0.67 0.18,0.16 0.39,0.24 0.63,0.24 0.24,0 0.44,-0.08 0.62,-0.24 0.17,-0.16 0.26,-0.38 0.26,-0.66 0,-0.24 -0.09,-0.45 -0.26,-0.63 -0.17,-0.17 -0.38,-0.26 -0.63,-0.26 z"
   class="st20"
   id="XMLID_511_"
   inkscape:connector-curvature="0"
   style="fill:#ffffff" />

						<path
   d="m 306.85,483.93 c -0.17,0 -0.31,0.05 -0.42,0.16 -0.11,0.1 -0.22,0.25 -0.32,0.43 -0.18,0.31 -0.38,0.54 -0.62,0.69 -0.23,0.15 -0.51,0.23 -0.84,0.23 -0.24,0 -0.46,-0.05 -0.66,-0.14 -0.2,-0.09 -0.37,-0.23 -0.52,-0.41 -0.14,-0.18 -0.25,-0.4 -0.33,-0.65 -0.08,-0.26 -0.11,-0.54 -0.11,-0.84 0,-0.65 0.15,-1.16 0.44,-1.53 0.29,-0.37 0.68,-0.56 1.16,-0.56 0.33,0 0.61,0.07 0.82,0.23 0.22,0.15 0.42,0.38 0.62,0.67 0.11,0.16 0.21,0.27 0.3,0.34 0.09,0.07 0.2,0.1 0.34,0.1 0.2,0 0.38,-0.07 0.52,-0.2 0.14,-0.13 0.21,-0.3 0.21,-0.49 0,-0.19 -0.06,-0.4 -0.19,-0.62 -0.13,-0.22 -0.31,-0.42 -0.56,-0.62 -0.25,-0.19 -0.54,-0.35 -0.89,-0.47 -0.35,-0.12 -0.74,-0.18 -1.16,-0.18 -0.67,0 -1.26,0.14 -1.75,0.42 -0.49,0.28 -0.86,0.67 -1.11,1.18 -0.26,0.51 -0.39,1.1 -0.39,1.77 0,0.98 0.28,1.77 0.84,2.35 0.56,0.58 1.34,0.88 2.35,0.88 0.47,0 0.89,-0.07 1.27,-0.19 0.38,-0.13 0.69,-0.29 0.93,-0.5 0.25,-0.21 0.43,-0.42 0.55,-0.66 0.12,-0.23 0.18,-0.45 0.18,-0.65 0,-0.17 -0.07,-0.33 -0.2,-0.48 -0.1,-0.18 -0.27,-0.26 -0.46,-0.26 z"
   class="st20"
   id="XMLID_510_"
   inkscape:connector-curvature="0"
   style="fill:#ffffff" />

						<path
   d="m 313.66,480.97 c -0.29,-0.29 -0.63,-0.52 -1.03,-0.67 -0.4,-0.16 -0.85,-0.24 -1.34,-0.24 -0.48,0 -0.92,0.08 -1.33,0.23 -0.4,0.16 -0.74,0.38 -1.02,0.67 -0.28,0.29 -0.5,0.64 -0.65,1.05 -0.15,0.41 -0.22,0.86 -0.22,1.35 0,0.49 0.08,0.93 0.22,1.33 0.15,0.4 0.37,0.75 0.66,1.05 0.28,0.29 0.63,0.52 1.02,0.68 0.39,0.16 0.83,0.24 1.33,0.24 0.49,0 0.94,-0.08 1.34,-0.23 0.39,-0.16 0.74,-0.38 1.02,-0.68 0.29,-0.29 0.5,-0.64 0.66,-1.05 0.15,-0.41 0.22,-0.86 0.22,-1.34 0,-0.49 -0.08,-0.93 -0.22,-1.34 -0.16,-0.41 -0.37,-0.75 -0.66,-1.05 z m -1.19,3.92 c -0.29,0.37 -0.68,0.56 -1.17,0.56 -0.32,0 -0.6,-0.09 -0.85,-0.25 -0.24,-0.17 -0.42,-0.41 -0.55,-0.73 -0.13,-0.32 -0.19,-0.68 -0.19,-1.11 0,-0.43 0.07,-0.8 0.2,-1.12 0.13,-0.32 0.31,-0.56 0.56,-0.73 0.24,-0.16 0.52,-0.25 0.84,-0.25 0.49,0 0.88,0.18 1.17,0.55 0.29,0.37 0.44,0.88 0.44,1.54 -0.02,0.65 -0.16,1.17 -0.45,1.54 z"
   class="st20"
   id="XMLID_507_"
   inkscape:connector-curvature="0"
   style="fill:#ffffff" />

						<path
   d="m 323.58,480.33 c -0.32,-0.17 -0.7,-0.26 -1.15,-0.26 -0.38,0 -0.73,0.08 -1.04,0.24 -0.31,0.16 -0.61,0.41 -0.88,0.74 -0.19,-0.33 -0.43,-0.57 -0.73,-0.74 -0.29,-0.16 -0.64,-0.24 -1.05,-0.24 -0.39,0 -0.75,0.08 -1.07,0.24 -0.32,0.16 -0.62,0.4 -0.9,0.74 v -0.15 c 0,-0.26 -0.07,-0.47 -0.22,-0.62 -0.15,-0.15 -0.33,-0.22 -0.56,-0.22 -0.23,0 -0.41,0.08 -0.56,0.24 -0.14,0.16 -0.21,0.39 -0.21,0.69 v 4.64 c 0,0.34 0.08,0.59 0.24,0.76 0.16,0.17 0.36,0.26 0.6,0.26 0.25,0 0.45,-0.09 0.6,-0.26 0.15,-0.17 0.23,-0.43 0.23,-0.76 v -2.19 c 0,-0.68 0.09,-1.21 0.25,-1.57 0.17,-0.37 0.52,-0.55 1.05,-0.55 0.26,0 0.46,0.07 0.58,0.22 0.12,0.14 0.2,0.33 0.23,0.55 0.03,0.23 0.04,0.54 0.04,0.95 v 2.58 c 0,0.34 0.08,0.59 0.23,0.77 0.15,0.17 0.35,0.26 0.59,0.26 0.25,0 0.45,-0.08 0.61,-0.26 0.16,-0.17 0.23,-0.43 0.23,-0.77 v -2.15 c 0,-0.69 0.06,-1.18 0.18,-1.45 0.11,-0.21 0.26,-0.38 0.45,-0.51 0.19,-0.13 0.4,-0.19 0.61,-0.19 0.26,0 0.46,0.07 0.6,0.21 0.13,0.14 0.21,0.32 0.24,0.53 0.03,0.21 0.04,0.49 0.04,0.84 v 2.73 c 0,0.34 0.08,0.59 0.24,0.76 0.16,0.17 0.36,0.26 0.6,0.26 0.25,0 0.46,-0.08 0.61,-0.26 0.15,-0.17 0.23,-0.43 0.23,-0.77 v -3.16 c 0,-0.63 -0.07,-1.09 -0.21,-1.39 -0.14,-0.31 -0.38,-0.57 -0.7,-0.74 z"
   class="st20"
   id="XMLID_506_"
   inkscape:connector-curvature="0"
   style="fill:#ffffff" />

					</g>

					<g
   id="XMLID_491_">
						<path
   d="m 245.27,482.96 c 0,0 0,-0.01 0,-0.01 0,0.01 0,0.01 0,0.01 z"
   class="st20"
   id="XMLID_504_"
   inkscape:connector-curvature="0"
   style="fill:#ffffff" />

						<path
   d="m 245.35,483.48 c 0,0 0,0 0,0 -0.03,-0.15 -0.05,-0.29 -0.07,-0.44 0.02,0.15 0.04,0.29 0.07,0.44 z"
   class="st20"
   id="XMLID_503_"
   inkscape:connector-curvature="0"
   style="fill:#ffffff" />

						<path
   d="m 245.89,484.98 c 0,-0.01 -0.01,-0.01 -0.01,-0.02 0,0.01 0.01,0.02 0.01,0.02 z"
   class="st20"
   id="XMLID_502_"
   inkscape:connector-curvature="0"
   style="fill:#ffffff" />

						<path
   d="m 245.84,484.88 c -0.01,-0.03 -0.03,-0.06 -0.04,-0.08 0.01,0.03 0.02,0.06 0.04,0.08 z"
   class="st20"
   id="XMLID_501_"
   inkscape:connector-curvature="0"
   style="fill:#ffffff" />

						<path
   d="m 245.5,484.06 c 0.08,0.25 0.17,0.49 0.29,0.72 -0.11,-0.23 -0.21,-0.48 -0.29,-0.72 z"
   class="st20"
   id="XMLID_500_"
   inkscape:connector-curvature="0"
   style="fill:#ffffff" />

						<path
   d="m 250.74,476.2 -0.08,-0.26 c 0.3,-0.06 0.52,-0.33 0.52,-0.65 0,-0.36 -0.3,-0.66 -0.66,-0.66 -0.36,0 -0.66,0.29 -0.66,0.66 0,0.32 0.22,0.58 0.52,0.65 l 0.08,0.29 c -1.02,0.14 -1.83,0.54 -1.83,0.54 l 0.14,0.44 c 0.62,-0.21 1.15,-0.33 1.64,-0.38 0.48,-0.05 0.83,-0.07 1.13,-0.07 0.31,0 0.54,0.02 0.81,0.07 l 0.07,-0.48 c 0.01,-0.01 -0.72,-0.23 -1.68,-0.15 z"
   class="st20"
   id="XMLID_499_"
   inkscape:connector-curvature="0"
   style="fill:#ffffff" />

						<path
   d="m 245.45,478.7 c -0.02,0.02 -0.5,0.47 -0.88,1.28 -0.02,-0.03 -0.03,-0.05 -0.06,-0.07 -0.11,-0.12 -0.27,-0.19 -0.47,-0.18 0,0 -0.01,0 -0.01,0 -0.12,0 -0.21,-0.04 -0.27,-0.09 0.06,-0.07 0.09,-0.16 0.09,-0.26 0,-0.23 -0.19,-0.42 -0.42,-0.42 -0.23,0 -0.42,0.19 -0.42,0.42 0,0.23 0.19,0.42 0.42,0.42 0.04,0 0.07,-0.01 0.1,-0.01 0.1,0.11 0.27,0.21 0.5,0.21 0.12,0 0.21,0.03 0.27,0.1 0.07,0.08 0.09,0.18 0.1,0.27 0,0 0,0 0,0 -0.27,0.74 -0.19,1.67 -0.19,1.67 l 0.66,0.03 c 0.01,-0.34 0.06,-0.93 0.23,-1.39 0.33,-0.91 0.74,-1.47 0.76,-1.5 v 0 c 0.02,-0.03 0.05,-0.06 0.07,-0.09 l -0.2,-0.14 z"
   class="st20"
   id="XMLID_498_"
   inkscape:connector-curvature="0"
   style="fill:#ffffff" />

						<path
   d="m 257.29,477.3 c -0.23,0 -0.42,0.19 -0.42,0.42 0,0.04 0.01,0.07 0.01,0.1 -0.11,0.1 -0.21,0.27 -0.21,0.51 0,0.12 -0.03,0.21 -0.1,0.27 -0.05,0.05 -0.12,0.07 -0.18,0.09 -0.49,-0.69 -1.1,-1.11 -1.1,-1.11 l -0.47,0.51 c 0.36,0.33 0.72,0.73 1.08,1.24 0.25,0.35 0.5,0.81 0.71,1.26 l 0.64,-0.3 c 0,0 -0.29,-0.72 -0.7,-1.37 0.07,-0.02 0.14,-0.06 0.21,-0.12 0.13,-0.11 0.19,-0.27 0.18,-0.47 0,-0.13 0.04,-0.22 0.09,-0.28 0.07,0.05 0.16,0.09 0.26,0.09 0.23,0 0.42,-0.19 0.42,-0.42 0,-0.23 -0.18,-0.42 -0.42,-0.42 z"
   class="st20"
   id="XMLID_497_"
   inkscape:connector-curvature="0"
   style="fill:#ffffff" />

						<path
   d="m 255.63,483.05 c -0.88,0.43 -2.33,1 -4.24,1.26 -0.75,0.1 -1.47,0.14 -2.14,0.14 -0.87,0 -1.64,-0.06 -2.23,-0.14 -0.67,-0.08 -1.2,-0.19 -1.52,-0.26 0.08,0.24 0.17,0.49 0.28,0.72 0,0.01 0,0.01 0.01,0.02 0.01,0.03 0.03,0.06 0.04,0.08 0.01,0.03 0.03,0.05 0.04,0.08 0,0.01 0.01,0.01 0.01,0.02 0.19,0.36 0.42,0.68 0.68,0.97 0.9,0.98 1.82,1.14 1.83,1.14 h 0.01 0.01 c 0.01,0 0.82,0.27 2.06,0.27 1.22,0 2.41,-0.25 3.55,-0.73 0.84,-0.43 1.64,-1.09 2.03,-1.67 0.31,-0.45 0.53,-0.93 0.66,-1.43 0.07,-0.27 0.12,-0.69 0.09,-1.14 -0.24,0.18 -0.64,0.42 -1.17,0.67 z"
   class="st20"
   id="XMLID_496_"
   inkscape:connector-curvature="0"
   style="fill:#ffffff" />

						<path
   d="m 252.32,477.17 c -0.26,-0.04 -0.48,-0.07 -0.78,-0.07 -0.28,0 -0.63,0.02 -1.09,0.07 -0.46,0.05 -0.98,0.17 -1.58,0.37 -0.84,0.28 -1.6,0.72 -2.2,1.28 l -0.02,0.02 c -0.09,0.08 -0.27,0.25 -0.49,0.53 -0.03,0.04 -0.41,0.58 -0.71,1.41 -0.23,0.62 -0.22,1.53 -0.22,1.54 v 0 c 0,0.21 0.01,0.42 0.04,0.63 0,0 0,0.01 0,0.01 0,0.03 0.01,0.05 0.01,0.08 0.02,0.14 0.04,0.29 0.07,0.44 0.44,0.11 3.05,0.72 5.97,0.31 1.83,-0.25 3.22,-0.8 4.06,-1.2 0.7,-0.34 1.15,-0.65 1.32,-0.77 -0.17,-0.64 -0.65,-1.65 -1.09,-2.28 -1.24,-1.79 -2.59,-2.25 -3.29,-2.37 z m -3.64,5.26 c -0.97,0 -1.76,-0.79 -1.76,-1.76 0,-0.97 0.79,-1.76 1.76,-1.76 0.97,0 1.76,0.79 1.76,1.76 0,0.97 -0.79,1.76 -1.76,1.76 z m 5.15,-1.3 c -0.6,0 -1.09,-0.49 -1.09,-1.09 0,-0.6 0.49,-1.09 1.09,-1.09 0.6,0 1.09,0.49 1.09,1.09 0,0.61 -0.49,1.09 -1.09,1.09 z"
   class="st20"
   id="XMLID_492_"
   inkscape:connector-curvature="0"
   style="fill:#ffffff" />

					</g>

				</g>

			</g>

		</g>

	</g>

</g>
    </g>
  </g>
  <style
     id="style6050"
     type="text/css">
	.st0{fill:#4FC2F8;}
	.st1{opacity:0.15;fill:#FFFFFF;}
	.st2{opacity:0.5;fill:#FFFFFF;}
	.st3{fill:#958496;}
	.st4{fill:#B5D7F0;}
	.st5{fill:#8AD094;}
	.st6{fill:#7EB691;}
	.st7{fill:#F8DBA3;}
	.st8{fill:#F5B35D;}
	.st9{fill:#F8C866;}
	.st10{fill:#F5A233;}
	.st11{fill:#266381;}
	.st12{fill:#101C28;}
	.st13{fill:#851F1A;}
	.st14{fill:#90C8F0;}
	.st15{fill:#89D4EE;}
	.st16{fill:#2AA064;}
	.st17{fill:#28B6F6;}
	.st18{fill:#248C57;}
	.st19{fill:none;stroke:#FFFFFF;stroke-miterlimit:10;stroke-dasharray:5;}
	.st20{fill:#FFFFFF;}
	.st21{fill:none;stroke:#631814;stroke-linecap:round;stroke-linejoin:round;stroke-miterlimit:10;}
	.st22{fill:#F03D27;}
	.st23{fill:none;stroke:#E2342B;stroke-linecap:round;stroke-linejoin:round;stroke-miterlimit:10;}
	.st24{fill:#FDB030;}
	.st25{fill:#D48B14;}
	.st26{opacity:0.5;fill:#AB7111;}
	.st27{fill:#701B15;}
	.st28{opacity:0.5;fill:#0F0A02;}
	.st29{fill:#CFD9DB;}
	.st30{fill:#B2D8EF;}
	.st31{fill:#B0BDC6;}
	.st32{font-family:'Montserrat-Black';}
	.st33{font-size:35px;}
</style>
</svg>
